<?xml version="1.0" encoding="iso-8859-1"?>
<!-- Generator: Adobe Illustrator 19.0.0, SVG Export Plug-In . SVG Version: 6.00 Build 0)  -->
<svg version="1.1" id="Capa_1" xmlns="http://www.w3.org/2000/svg" xmlns:xlink="http://www.w3.org/1999/xlink" x="0px" y="0px"
	 viewBox="0 0 512 512" style="enable-background:new 0 0 512 512;" xml:space="preserve">
<path style="fill:#34ABE0;" d="M512,256c0,14.576-1.223,28.881-3.563,42.789c-1.808,10.689-4.263,21.149-7.346,31.347
	c-4.263,14.137-9.718,27.763-16.259,40.751c-29.278,58.201-80.102,103.696-142.012,126.015c-20.355,7.335-41.9,12.163-64.261,14.117
	C271.12,511.666,263.596,512,256,512c-51.524,0-99.506-15.224-139.661-41.43c-29.905-19.498-55.484-45.077-74.961-74.992
	c-5.183-7.941-9.927-16.175-14.211-24.691c-6.541-12.988-11.995-26.614-16.259-40.751c-3.082-10.198-5.538-20.658-7.346-31.347
	C1.223,284.881,0,270.576,0,256C0,114.615,114.615,0,256,0c33.228,0,64.982,6.332,94.114,17.857
	c29.592,11.703,56.487,28.766,79.475,49.998c4.096,3.772,8.056,7.67,11.891,11.703c4.974,5.224,9.718,10.648,14.231,16.28l0.01,0.01
	c1.034,1.275,2.048,2.57,3.051,3.866C492.147,142.952,512,197.162,512,256z"/>
<g>
	<path style="fill:#78CAEF;" d="M460.121,105.347c0,6.907-5.601,12.497-12.507,12.497h-1.223c-3.459,0-6.572,1.4-8.84,3.668
		c-2.257,2.257-3.657,5.392-3.657,8.84c0,6.896-5.601,12.497-12.497,12.497H241.382c-3.448,0-6.572-1.4-8.829-3.657
		c-2.267-2.267-3.668-5.392-3.668-8.84c0-6.907,5.601-12.507,12.497-12.507h38.003c3.448,0,6.572-1.4,8.84-3.657
		c2.257-2.267,3.657-5.381,3.657-8.84c0-6.896-5.601-12.497-12.497-12.497h-10.606c-3.459,0-6.572-1.4-8.84-3.668
		c-2.257-2.257-3.657-5.381-3.657-8.829c0-6.907,5.59-12.497,12.497-12.497h35.098c3.448,0,6.583-1.4,8.84-3.668
		c2.267-2.257,3.668-5.392,3.668-8.84c0-6.896-5.601-12.497-12.507-12.497h-77.072c-3.448,0-6.583-1.4-8.84-3.657
		c-2.257-2.257-3.657-5.392-3.657-8.84c0-6.907,5.59-12.497,12.497-12.497h123.308c29.592,11.703,56.487,28.766,79.475,49.998h-4.89
		c-3.448,0-6.572,1.4-8.829,3.657c-2.267,2.267-3.668,5.381-3.668,8.84c0,6.896,5.601,12.497,12.497,12.497h22.915
		c3.082,0,5.925,1.118,8.098,2.988l0.01,0.01c0.251,0.209,0.502,0.428,0.731,0.669c0.93,0.93,1.724,2.006,2.32,3.197
		C459.64,101.407,460.121,103.32,460.121,105.347z"/>
	<path style="fill:#78CAEF;" d="M150.783,234.078v-0.001c0-6.903-5.595-12.498-12.498-12.498H19.544
		c-6.903,0-12.498,5.595-12.498,12.498v0.001c0,6.903,5.595,12.498,12.498,12.498h19.79c6.903,0,12.498,5.595,12.498,12.498v0.001
		c0,6.903,5.595,12.498,12.498,12.498h98.951c6.903,0,12.498-5.595,12.498-12.498v-0.001c0-6.903-5.595-12.498-12.498-12.498l0,0
		C156.378,246.576,150.783,240.981,150.783,234.078z"/>
</g>
<path style="fill:#4BC999;" d="M508.437,298.789c-1.808,10.689-4.263,21.149-7.346,31.347c-4.263,14.137-9.718,27.763-16.259,40.751
	c-29.278,58.201-80.102,103.696-142.012,126.015c-20.355,7.335-41.9,12.163-64.261,14.117C271.12,511.666,263.596,512,256,512
	c-100.07,0-186.734-57.417-228.833-141.113c-6.541-12.988-11.995-26.614-16.259-40.751c-3.082-10.198-5.538-20.658-7.346-31.347
	H508.437z"/>
<path style="fill:#FF525D;" d="M512,256c0,25.778-3.814,50.667-10.909,74.136H50.155V182.032
	c0-56.696,45.965-102.661,102.661-102.661h282.499c2.069,0,4.127,0.063,6.165,0.188c5.193,5.454,10.156,11.149,14.858,17.053
	c8.61,10.815,16.374,22.34,23.165,34.482C500.203,168.04,512,210.641,512,256z"/>
<g>
	<path style="fill:#5BD3A2;" d="M365.788,391.337L365.788,391.337c0-6.903,5.595-12.499,12.499-12.499h40.278
		c6.903,0,12.499-5.595,12.499-12.499l0,0c0-6.903-5.595-12.499-12.499-12.499h-118.74c-6.903,0-12.499,5.595-12.499,12.499l0,0
		c0,6.903-5.595,12.499-12.499,12.499h-40.278c-6.903,0-12.499,5.596-12.499,12.499l0,0c0,6.903,5.596,12.499,12.499,12.499h59.721
		c6.903,0,12.499,5.595,12.499,12.499l0,0c0,6.903,5.595,12.499,12.499,12.499h118.74c6.903,0,12.499-5.595,12.499-12.499l0,0
		c0-6.903-5.595-12.499-12.499-12.499h-59.721C371.384,403.836,365.788,398.241,365.788,391.337z"/>
	<path style="fill:#5BD3A2;" d="M174.602,433.079c0,6.896-5.601,12.497-12.507,12.497h-3.469c-3.459,0-6.572,1.4-8.84,3.657
		c-2.257,2.267-3.657,5.392-3.657,8.84c0,6.907-5.601,12.497-12.497,12.497h-17.293c-29.905-19.498-55.484-45.077-74.961-74.992
		h66.038c6.896,0,12.497,5.601,12.497,12.497c0,6.907,5.59,12.507,12.497,12.507h29.686c3.459,0,6.583,1.4,8.84,3.657
		C173.202,426.496,174.602,429.631,174.602,433.079z"/>
</g>
<path style="fill:#5C5E70;" d="M255.47,182.032v148.104H50.158V182.032c0-11.807,1.996-23.144,5.663-33.698
	c13.939-40.145,52.099-68.963,96.987-68.963s83.059,28.818,96.998,68.963c2.267,6.52,3.897,13.333,4.807,20.376
	C255.178,173.066,255.47,177.518,255.47,182.032z"/>
<path style="fill:#F9EED7;" d="M255.47,182.032v148.104H98.746l-48.588-89.454L0.003,148.334h249.804
	C253.474,158.887,255.47,170.224,255.47,182.032z"/>
<g>
	<path style="fill:#E8DBC4;" d="M255.47,182.032v148.104h-68.963V182.032c0-4.514-0.293-8.965-0.857-13.322
		c-0.909-7.043-2.539-13.855-4.807-20.376h68.963C253.474,158.887,255.47,170.224,255.47,182.032z"/>
	<path style="fill:#E8DBC4;" d="M224.123,182.032v148.104h-89.004l-56.33-161.426h144.478
		C223.831,173.066,224.123,177.518,224.123,182.032z"/>
</g>
<path style="fill:#FFD15C;" d="M255.47,182.032v148.104h-89.004l-43.144-79.433l-44.534-81.993h175.825
	C255.178,173.066,255.47,177.518,255.47,182.032z"/>
<path style="fill:#B58657;" d="M342.821,347.376v149.525c-10.167,3.668-20.637,6.698-31.347,9.07
	c-10.731,2.372-21.723,4.065-32.914,5.047V347.376H342.821z"/>
<path style="fill:#C69A6A;" d="M342.821,392.829v104.072c-10.167,3.668-20.637,6.698-31.347,9.07V392.829H342.821z"/>
<path style="fill:#EDBB4C;" d="M255.47,182.032v148.104h-54.857V182.032c0-4.514-0.293-8.965-0.857-13.322h54.857
	C255.178,173.066,255.47,177.518,255.47,182.032z"/>
<path style="fill:#5C5E70;" d="M501.091,330.135c-4.263,14.137-9.718,27.763-16.259,40.751H27.167
	c-6.541-12.988-11.995-26.614-16.259-40.751H501.091z"/>
<path style="fill:#FF6E7C;" d="M479.504,131.093H292.665c-9.519,0-17.241-7.722-17.241-17.241c0-4.754,1.933-9.07,5.047-12.194
	c3.124-3.114,7.44-5.047,12.194-5.047h163.673C464.948,107.426,472.712,118.951,479.504,131.093z"/>
<path style="fill:#494B5B;" d="M171.98,350.511L171.98,350.511c0,11.254-9.122,20.376-20.376,20.376H27.167
	c-6.541-12.988-11.995-26.614-16.259-40.751h140.695C162.858,330.135,171.98,339.257,171.98,350.511z"/>
<g>
</g>
<g>
</g>
<g>
</g>
<g>
</g>
<g>
</g>
<g>
</g>
<g>
</g>
<g>
</g>
<g>
</g>
<g>
</g>
<g>
</g>
<g>
</g>
<g>
</g>
<g>
</g>
<g>
</g>
</svg>
